<svg version="1.1" preserveAspectRatio="none" xmlns="http://www.w3.org/2000/svg" width="500" height="500" viewBox="0 0 500 500"><rect width="100%" height="100%" fill="#F7F7F7" fill-opacity="1"/><svg viewBox="297.1288 250.7498 388.327 144.7729" width="333" height="124.14633981155058" x="83.5px" y="187.9268px" xmlns="http://www.w3.org/2000/svg" xmlns:xlink="http://www.w3.org/1999/xlink" preserveAspectRatio="none"><defs></defs><style>.companyName {fill:#2B2B2B;fill-opacity:1;}.icon1 {fill:#2B2B2B;fill-opacity:1;}.icon2 {fill:#59C65B;fill-opacity:1;}.icon3 {fill:#6D6D6D;fill-opacity:1;}.icon3-str {stroke:#6D6D6D;stroke-opacity:1;}</style><g opacity="1" transform="rotate(0 433.0433 250.7498)">
<svg width="116.4981" height="84.7729" x="433.0433" y="250.7498" version="1.1" preserveAspectRatio="none" viewBox="1.9536004066467285 15.230799674987793 96.0942153930664 69.92549896240234">
  <g transform="matrix(1 0 0 1 0 0)" class="icon1"><path d="m18.23 24.609h3.043c0.64844 0 1.1719-0.52344 1.1719-1.1719s-0.52344-1.1719-1.1719-1.1719h-3.043c-0.64844 0-1.1719 0.52344-1.1719 1.1719s0.52344 1.1719 1.1719 1.1719z"></path><path d="m26.301 24.609 16.332-0.039063h0.003907c0.3125 0.007813 0.61328-0.10937 0.83984-0.32422 0.22266-0.21875 0.35156-0.51562 0.35156-0.82812s-0.12891-0.61328-0.35156-0.82812c-0.22656-0.21875-0.53125-0.33594-0.84375-0.32422l-16.332-0.003906c-0.64062 0.007812-1.1562 0.53125-1.1562 1.1758 0 0.64062 0.51562 1.1641 1.1562 1.1719z"></path><path d="m17.984 33.594h3.0469-0.003906c0.64844 0 1.1719-0.52344 1.1719-1.1719s-0.52344-1.1719-1.1719-1.1719h-3.043c-0.64844 0-1.1719 0.52344-1.1719 1.1719s0.52344 1.1719 1.1719 1.1719z"></path><path d="m26.055 33.594 16.332-0.015625h0.003906c0.30859 0.003906 0.60938-0.11719 0.83203-0.33594 0.21875-0.21875 0.34375-0.51953 0.34375-0.82813 0-0.3125-0.125-0.60937-0.34375-0.82812-0.22266-0.21875-0.52344-0.33984-0.83594-0.33594l-16.332 0.019531c-0.30859 0-0.60547 0.12109-0.82031 0.33984-0.21875 0.21875-0.33984 0.51562-0.33984 0.82422 0 0.64062 0.51953 1.1602 1.1602 1.1602z"></path><path d="m21.371 40.234h-3.043c-0.64844 0-1.1719 0.52344-1.1719 1.1719s0.52344 1.1719 1.1719 1.1719h3.043c0.64844 0 1.1719-0.52344 1.1719-1.1719s-0.52344-1.1719-1.1719-1.1719z"></path><path d="m42.734 40.234-16.332 0.042969h-0.003906c-0.30859-0.003906-0.60547 0.11328-0.82422 0.32812-0.22266 0.21875-0.34766 0.51562-0.34375 0.82422 0 0.30859 0.12109 0.60547 0.34375 0.82031 0.21875 0.21484 0.51953 0.33594 0.82812 0.32812l16.332 0.007813c0.64844-0.003907 1.1758-0.52734 1.1758-1.1758 0-0.65234-0.52734-1.1758-1.1758-1.1758z"></path><path d="m21.371 49.414h-3.043c-0.64844 0-1.1719 0.52344-1.1719 1.1719 0 0.64844 0.52344 1.1719 1.1719 1.1719h3.043c0.64844 0 1.1719-0.52344 1.1719-1.1719 0-0.64844-0.52344-1.1719-1.1719-1.1719z"></path><path d="m42.734 49.219-16.332 0.066406h-0.003906c-0.65625 0.035156-1.1719 0.57812-1.1719 1.2383 0 0.65625 0.51563 1.1992 1.1758 1.2344l16.332-0.070312c0.65625-0.035156 1.1719-0.57812 1.1719-1.2344s-0.51562-1.1992-1.1719-1.2344z"></path><path d="m21.371 58.398h-3.043c-0.64844 0-1.1719 0.52344-1.1719 1.1719 0 0.64844 0.52344 1.1719 1.1719 1.1719h3.043c0.64844 0 1.1719-0.52344 1.1719-1.1719 0-0.64844-0.52344-1.1719-1.1719-1.1719z"></path><path d="m42.734 58.398-16.332-0.007813h-0.003906c-0.64453 0.007813-1.1602 0.53125-1.1602 1.1758 0 0.64453 0.51953 1.168 1.1641 1.1758l16.332-0.046876c0.30859 0.007813 0.60547-0.11328 0.82812-0.32812 0.21875-0.21484 0.34375-0.51172 0.34375-0.82031-0.003906-0.30859-0.125-0.60547-0.34766-0.82031-0.21875-0.21484-0.51562-0.33594-0.82422-0.32812z"></path><path d="m21.371 67.383h-3.043c-0.64844 0-1.1719 0.52344-1.1719 1.1719 0 0.64844 0.52344 1.1719 1.1719 1.1719h3.043c0.64844 0 1.1719-0.52344 1.1719-1.1719 0-0.64844-0.52344-1.1719-1.1719-1.1719z"></path><path d="m42.734 67.383-16.332 0.015626h-0.003906c-0.30859-0.003907-0.60938 0.11719-0.83203 0.33594s-0.34766 0.51562-0.34766 0.82812c0.003906 0.3125 0.12891 0.60938 0.34766 0.82812 0.22266 0.21875 0.52344 0.33984 0.83594 0.33594l16.332-0.023437c0.3125 0.003906 0.60938-0.11719 0.83203-0.33594 0.21875-0.21484 0.34375-0.51563 0.34375-0.82422 0-0.3125-0.125-0.60938-0.34766-0.82812-0.21875-0.21484-0.51953-0.33594-0.82812-0.33203z"></path><path d="m56.445 50.977h27.148c0.64844 0 1.1719-0.52344 1.1719-1.1719v-26.758c0-0.64844-0.52344-1.1719-1.1719-1.1719h-27.148c-0.64844 0-1.1719 0.52344-1.1719 1.1719v26.758c0 0.64844 0.52344 1.1719 1.1719 1.1719zm4.1836-2.3438 3.3672-3.3008 3.3672 3.3008zm10.086 0-0.58984-0.59375 4.8945-7.3945 5.2891 7.9883zm-13.098-24.414h24.805v23.477l-6.4766-9.8516c-0.19531-0.32812-0.54297-0.53125-0.92578-0.53906-0.39453 0.003906-0.76172 0.20703-0.97656 0.53906l-5.625 8.5039-3.6016-3.5273c-0.47656-0.44531-1.2148-0.44531-1.6875 0l-5.5117 5.3555z"></path><path d="m67.762 43.305c1.4336 0 2.7266-0.86328 3.2734-2.1875 0.55078-1.3242 0.24609-2.8477-0.76562-3.8594-1.0156-1.0117-2.5391-1.3164-3.8633-0.76953-1.3242 0.55078-2.1836 1.8398-2.1875 3.2734 0.003906 1.957 1.5898 3.543 3.543 3.543zm0-4.7422c0.48438 0 0.92188 0.29297 1.1094 0.74219 0.18359 0.44922 0.082031 0.96484-0.26172 1.3047-0.33984 0.34375-0.85547 0.44531-1.3047 0.26172-0.44922-0.1875-0.74219-0.625-0.74219-1.1094 0.003906-0.66016 0.53906-1.1953 1.1992-1.1992z"></path><path d="m61.41 58.398h-3.043c-0.64844 0-1.1719 0.52344-1.1719 1.1719 0 0.64844 0.52344 1.1719 1.1719 1.1719h3.043c0.64844 0 1.1719-0.52344 1.1719-1.1719 0-0.64844-0.52344-1.1719-1.1719-1.1719z"></path><path d="m82.773 58.398-16.332-0.007813h-0.003906c-0.64453 0.007813-1.1602 0.53125-1.1602 1.1758 0 0.64453 0.51953 1.168 1.1641 1.1758l16.332-0.046876c0.30859 0.007813 0.60547-0.11328 0.82812-0.32812 0.21875-0.21484 0.34375-0.51172 0.34375-0.82031-0.003906-0.30859-0.125-0.60547-0.34766-0.82031-0.21875-0.21484-0.51562-0.33594-0.82422-0.32812z"></path><path d="m61.41 67.383h-3.043c-0.64844 0-1.1719 0.52344-1.1719 1.1719 0 0.64844 0.52344 1.1719 1.1719 1.1719h3.043c0.64844 0 1.1719-0.52344 1.1719-1.1719 0-0.64844-0.52344-1.1719-1.1719-1.1719z"></path><path d="m82.773 67.383-16.332 0.015626h-0.003906c-0.30859-0.003907-0.60938 0.11719-0.83203 0.33594-0.22266 0.21875-0.34766 0.51562-0.34766 0.82812 0.003907 0.3125 0.12891 0.60938 0.34766 0.82812 0.22266 0.21875 0.52344 0.33984 0.83594 0.33594l16.332-0.023437c0.3125 0.003906 0.60937-0.11719 0.83203-0.33594 0.21875-0.21484 0.34375-0.51563 0.34375-0.82422 0-0.3125-0.125-0.60938-0.34766-0.82812-0.21875-0.21484-0.51953-0.33594-0.82812-0.33203z"></path><path d="m92.969 22.266h-1.7578v-1.9766c0-1.3398-0.53125-2.6289-1.4805-3.5781-0.94922-0.94922-2.2344-1.4805-3.5781-1.4805l-71.242 0.003906h-0.003906c-1.3516-0.011719-2.6562 0.51953-3.6211 1.4688-0.96484 0.94141-1.5117 2.2266-1.5195 3.5742v2.0703l-2.7383 0.003906v-0.003906c-2.8008 0.007813-5.0703 2.2773-5.0742 5.0781v52.609c0.003906 2.7969 2.2773 5.0586 5.0742 5.0586l85.938 0.0625h0.003906c1.3438 0.007812 2.6328-0.51953 3.5859-1.4648 0.95312-0.94531 1.4922-2.2305 1.4922-3.5742v-52.773c0-2.8047-2.2734-5.0781-5.0781-5.0781zm-80.859-1.9883c0.011719-0.72656 0.30859-1.4141 0.83203-1.918 0.52734-0.50781 1.2344-0.78906 1.9648-0.78125l33.785-0.011719 0.054688 56.281-33.871-0.011718c-1.5156-0.003907-2.75-1.2227-2.7656-2.7383zm36.637 62.527-41.715-0.039063h-0.003906c-1.5078 0-2.7266-1.2227-2.7305-2.7305v-52.609c0.003906-1.5078 1.2227-2.7305 2.7305-2.7344h2.7383v46.406c0.019531 2.8047 2.3008 5.0703 5.1094 5.0664l33.875 0.003907zm37.406-65.25c0.72266 0 1.4141 0.29297 1.9258 0.80469 0.50781 0.51172 0.79297 1.207 0.78906 1.9297v50.82c0.007812 0.72266-0.27344 1.4141-0.78125 1.9258-0.50781 0.50781-1.1992 0.79688-1.918 0.79297h-35.078l-0.054688-56.285zm9.5508 62.562c0 0.72266-0.29297 1.4102-0.80469 1.918-0.51563 0.50781-1.207 0.78516-1.9297 0.77734h-0.003906l-41.879-0.019531 0.003906-6.6211h35.078c1.3398 0.003906 2.6289-0.53125 3.5742-1.4805 0.94922-0.94922 1.4766-2.2383 1.4688-3.582v-46.5h1.7578c1.5117 0 2.7344 1.2227 2.7344 2.7344z"></path><path d="m7.0312 27.285c-0.64844 0-1.1719 0.52344-1.1719 1.1719v0.37891c0 0.64844 0.52344 1.1719 1.1719 1.1719s1.1719-0.52344 1.1719-1.1719v-0.37891c0-0.64844-0.52344-1.1719-1.1719-1.1719z"></path><path d="m7.0312 31.473c-0.64844 0-1.1719 0.52344-1.1719 1.1719v20.758c0 0.64844 0.52344 1.1719 1.1719 1.1719s1.1719-0.52344 1.1719-1.1719v-20.758c0-0.64844-0.52344-1.1719-1.1719-1.1719z"></path></g>
</svg>
</g><g opacity="1" transform="rotate(0 297.1288 361.5227)">
<svg width="388.327" height="34" x="297.1288" y="361.5227" version="1.1" preserveAspectRatio="none" viewBox="0.2 -25.44 290.56 25.44">
  <g transform="matrix(1 0 0 1 0 0)" class="companyName"><path id="id-D6z1nYkh16" d="M19.16 0L13.40 0L12.52-4.60L6.72-4.60L5.84 0L0.20 0L5.96-25.44L13.24-25.44L19.16 0ZM9.60-19.52L7.52-8.76L11.68-8.76L9.60-19.52Z M27.60-25.44L27.60-4.20L34.92-4.20L34.92 0L21.92 0L21.92-25.44L27.60-25.44Z M43.24-25.44L43.24-4.20L50.56-4.20L50.56 0L37.56 0L37.56-25.44L43.24-25.44Z M70.56 0L64.80 0L63.92-4.60L58.12-4.60L57.24 0L51.60 0L57.36-25.44L64.64-25.44L70.56 0ZM61.00-19.52L58.92-8.76L63.08-8.76L61.00-19.52Z M83.96-10.24L83.96-25.44L89.20-25.44L89.20 0L84.08 0L78.52-15.24L78.52 0L73.32 0L73.32-25.44L78.48-25.44L83.96-10.24Z M116.56-21.04L116.56-16.52L110.80-16.52L110.80-20.52Q110.80-21.52 109.76-21.52L109.76-21.52L108.12-21.52Q107.04-21.52 107.04-20.52L107.04-20.52L107.04-4.92Q107.04-4.36 107.28-4.14Q107.52-3.92 108.12-3.92L108.12-3.92L109.76-3.92Q110.32-3.92 110.56-4.14Q110.80-4.36 110.80-4.92L110.80-4.92L110.80-8.80L116.56-8.80L116.56-4.40Q116.56 0 111.48 0L111.48 0L106.36 0Q101.32 0 101.32-4.40L101.32-4.40L101.32-21.04Q101.32-25.44 106.36-25.44L106.36-25.44L111.48-25.44Q116.56-25.44 116.56-21.04L116.56-21.04Z M125.24-25.44L125.24-25.44L130.60-25.44Q135.64-25.44 135.64-21.04L135.64-21.04L135.64-4.44Q135.64 0 130.60 0L130.60 0L125.24 0Q120.16 0 120.16-4.44L120.16-4.44L120.16-21.04Q120.16-25.44 125.24-25.44ZM129.92-5.20L129.92-5.20L129.92-20.24Q129.92-21.24 128.88-21.24L128.88-21.24L126.96-21.24Q125.88-21.24 125.88-20.24L125.88-20.24L125.88-5.20Q125.88-4.20 126.96-4.20L126.96-4.20L128.88-4.20Q129.92-4.20 129.92-5.20Z M139.88 0L139.88-25.44L150.36-25.44Q155.40-25.44 155.40-21.04L155.40-21.04L155.40-13.32Q155.40-8.88 150.36-8.88L150.36-8.88L145.56-8.88L145.56 0L139.88 0ZM149.68-14.08L149.68-14.08L149.68-20.24Q149.68-21.24 148.64-21.24L148.64-21.24L145.56-21.24L145.56-13.08L148.64-13.08Q149.68-13.08 149.68-14.08Z M164.64-10.84L164.64-4.20L172.80-4.20L172.80 0L158.92 0L158.92-25.44L172.48-25.44L172.48-21.24L164.64-21.24L164.64-15.04L171.32-15.04L171.32-10.84L164.64-10.84Z M186.72-10.24L186.72-25.44L191.96-25.44L191.96 0L186.84 0L181.28-15.24L181.28 0L176.08 0L176.08-25.44L181.24-25.44L186.72-10.24Z M207.08-14.68L207.08-25.44L212.72-25.44L212.72 0L207.08 0L207.08-10.48L201.96-10.48L201.96 0L196.32 0L196.32-25.44L201.96-25.44L201.96-14.68L207.08-14.68Z M234.48 0L228.72 0L227.84-4.60L222.04-4.60L221.16 0L215.52 0L221.28-25.44L228.56-25.44L234.48 0ZM224.92-19.52L222.84-8.76L227.00-8.76L224.92-19.52Z M244.80-6.56L248.00-25.44L253.92-25.44L248.32 0L241.32 0L235.68-25.44L241.64-25.44L244.80-6.56Z M262.52-10.84L262.52-4.20L270.68-4.20L270.68 0L256.80 0L256.80-25.44L270.36-25.44L270.36-21.24L262.52-21.24L262.52-15.04L269.20-15.04L269.20-10.84L262.52-10.84Z M280.64-9.52L279.64-9.52L279.64 0L273.96 0L273.96-25.44L284.44-25.44Q289.48-25.44 289.48-21.04L289.48-21.04L289.48-13.92Q289.48-10.40 286.28-9.68L286.28-9.68L290.76 0L284.64 0L280.64-9.52ZM282.72-21.24L279.64-21.24L279.64-13.56L282.72-13.56Q283.28-13.56 283.52-13.78Q283.76-14 283.76-14.52L283.76-14.52L283.76-20.24Q283.76-21.24 282.72-21.24L282.72-21.24Z"/></g>
</svg>
</g></svg></svg>